<svg width="100%" height="150" viewBox="0 0 1440 320" xmlns="http://www.w3.org/2000/svg">
    <path fill="#007bff" fill-opacity="1" d="M0,128L30,128C60,128,120,128,180,144C240,160,300,192,360,192C420,192,480,160,540,165.3C600,171,660,213,720,224C780,235,840,213,900,202.7C960,192,1020,192,1080,176C1140,160,1200,128,1260,112C1320,96,1380,96,1410,96L1440,96L1440,320L1410,320C1380,320,1320,320,1260,320C1200,320,1140,320,1080,320C1020,320,960,320,900,320C840,320,780,320,720,320C660,320,600,320,540,320C480,320,420,320,360,320C300,320,240,320,180,320C120,320,60,320,30,320L0,320Z"></path>
  </svg>
  